<?xml version="1.0" standalone="no"?>
<!DOCTYPE svg PUBLIC "-//W3C//DTD SVG 20010904//EN"
 "http://www.w3.org/TR/2001/REC-SVG-20010904/DTD/svg10.dtd">
<svg width="30px" height="20px" version="1.0" xmlns="http://www.w3.org/2000/svg"
 width="840.000000pt" height="859.000000pt" viewBox="0 0 840.000000 859.000000"
 preserveAspectRatio="xMidYMid meet">

<g transform="translate(0.000000,859.000000) scale(0.100000,-0.100000)"
fill="#000000" stroke="none">
<path d="M2475 7543 c-58 -8 -171 -47 -237 -82 -165 -89 -293 -236 -357 -413
-52 -140 -51 -123 -51 -1582 0 -1542 -8 -1404 84 -1431 27 -8 64 -15 82 -15
42 0 116 26 132 47 9 13 12 306 12 1385 0 1519 -3 1448 66 1565 62 105 171
186 285 212 28 7 412 11 1061 11 l1017 0 246 -242 c491 -485 762 -754 1318
-1302 l567 -558 0 -1472 c0 -830 -5 -1502 -10 -1541 -8 -65 -26 -114 -66 -187
-25 -46 -110 -123 -171 -155 -32 -17 -85 -36 -117 -42 -41 -8 -534 -11 -1599
-11 -1362 0 -1543 -2 -1571 -15 -82 -39 -90 -203 -15 -271 21 -19 61 -19 1553
-22 1550 -3 1676 0 1768 34 59 22 141 57 153 67 6 4 29 20 52 35 76 50 152
128 207 215 35 54 51 88 89 187 l21 55 3 1673 3 1674 -269 266 c-148 147 -396
393 -552 546 -156 154 -460 453 -674 665 -215 212 -465 459 -556 549 l-166
162 -1139 -1 c-626 -1 -1152 -4 -1169 -6z"/>
<path d="M4130 6350 c-170 -19 -295 -45 -434 -90 -100 -33 -95 -31 -219 -90
l-89 -42 7 -45 c4 -25 13 -60 20 -77 7 -17 29 -83 48 -146 20 -63 52 -166 71
-228 20 -62 36 -119 36 -127 0 -22 20 -28 38 -12 22 18 153 82 212 102 176 60
399 73 528 31 78 -25 142 -65 173 -105 10 -14 22 -30 27 -36 20 -25 42 -120
42 -182 -1 -121 -50 -232 -189 -423 -30 -41 -57 -77 -60 -80 -4 -3 -42 -50
-85 -105 -44 -55 -82 -102 -86 -105 -3 -3 -23 -32 -44 -65 -21 -33 -47 -72
-57 -87 -11 -15 -19 -29 -19 -32 0 -2 -15 -37 -34 -78 -91 -199 -117 -340
-108 -596 l4 -112 392 2 391 3 6 145 c5 141 14 192 57 310 18 52 78 168 98
191 8 8 14 19 14 24 0 7 96 130 130 166 8 8 24 26 35 40 11 13 43 49 70 79 28
31 64 72 80 93 17 21 38 48 48 60 57 68 164 254 204 352 42 105 57 200 57 360
0 177 -15 253 -77 385 -100 212 -303 382 -547 458 -135 42 -179 51 -316 66
-171 19 -224 19 -424 -4z"/>
<path d="M1900 3770 c-30 -4 -77 -15 -103 -24 -26 -9 -52 -16 -57 -16 -23 0
-172 -77 -250 -128 -255 -169 -429 -453 -461 -753 -11 -103 -6 -267 11 -344
14 -67 41 -159 50 -170 4 -5 11 -25 15 -42 3 -18 11 -33 16 -33 5 0 9 -6 9
-14 0 -31 128 -205 210 -286 47 -47 93 -90 101 -95 138 -98 297 -169 435 -195
111 -21 296 -24 392 -5 188 36 306 88 482 212 61 43 191 189 247 278 21 34 89
178 106 225 54 151 69 402 34 550 -46 188 -103 311 -211 450 -51 67 -172 180
-239 225 -115 77 -285 145 -407 165 -72 11 -295 11 -380 0z m248 -348 c12 -4
36 -20 52 -36 54 -51 60 -78 60 -296 l0 -198 213 -4 c209 -3 214 -4 250 -28
74 -50 100 -171 50 -238 -49 -65 -55 -67 -291 -72 l-217 -5 -5 -205 c-5 -213
-11 -243 -53 -288 -52 -56 -173 -58 -230 -4 -50 47 -52 56 -57 282 l-5 215
-215 5 c-144 3 -222 9 -237 17 -11 7 -35 30 -52 52 -27 33 -31 47 -31 97 0 60
14 94 57 133 35 33 92 41 291 41 l192 0 0 194 c0 106 3 207 6 224 7 34 63 98
98 112 25 10 91 11 124 2z"/>
<path d="M4178 3329 c-37 -5 -96 -22 -130 -38 -63 -30 -166 -107 -167 -125 -1
-6 -10 -19 -20 -30 -40 -43 -79 -140 -94 -236 -13 -84 -13 -106 0 -190 14 -90
56 -199 94 -244 85 -102 191 -165 321 -191 96 -19 110 -19 206 0 153 31 292
124 350 236 59 110 67 146 67 289 0 116 -3 144 -23 199 -59 163 -192 287 -343
320 -71 15 -189 20 -261 10z"/>
</g>
</svg>
